<svg xmlns="http://www.w3.org/2000/svg" xmlns:xlink="http://www.w3.org/1999/xlink" width="31" height="41" viewBox="0 0 31 41"><defs><path id="wk2ja" d="M1115 1596c0-1 1-2 2-2h27c1 0 2 1 2 2v37c0 1-1 2-2 2h-27c-1 0-2-1-2-2z"/><path id="wk2jb" d="M1119 1604a4 4 0 1 1 8 0 4 4 0 0 1-8 0z"/><path id="wk2jd" d="M1140.5 1599.5h-10"/><path id="wk2je" d="M1140.5 1604.5h-10"/><path id="wk2jf" d="M1140.5 1609.5h-10"/><path id="wk2jg" d="M1140.5 1614.5h-20"/><path id="wk2jh" d="M1140.5 1619.5h-20"/><path id="wk2ji" d="M1133.5 1624.5h-13"/><path id="wk2jj" d="M1128.5 1629.5h-8"/><path id="wk2jk" d="M1140.5 1624.5h-4"/><path id="wk2jl" d="M1140.5 1629.5h-9"/><path id="wk2jn" d="M1121.5 1607.5l-2 1"/><path id="wk2jo" d="M1124.5 1607.5l2 1"/><clipPath id="wk2jc"><use fill="#fff" xlink:href="#wk2ja"/></clipPath><clipPath id="wk2jm"><use fill="#fff" xlink:href="#wk2jb"/></clipPath></defs><g><g transform="translate(-1115 -1594)"><g/><g><g><use fill="#fff" xlink:href="#wk2ja"/><use fill="#fff" fill-opacity="0" stroke="#ffdc00" stroke-linecap="round" stroke-linejoin="round" stroke-miterlimit="50" stroke-width="4" clip-path="url(&quot;#wk2jc&quot;)" xlink:href="#wk2ja"/></g><g><use fill="#fff" fill-opacity="0" stroke="#ffdc00" stroke-linecap="round" stroke-miterlimit="50" stroke-width="2" xlink:href="#wk2jd"/></g><g><use fill="#fff" fill-opacity="0" stroke="#ffdc00" stroke-linecap="round" stroke-miterlimit="50" stroke-width="2" xlink:href="#wk2je"/></g><g><use fill="#fff" fill-opacity="0" stroke="#ffdc00" stroke-linecap="round" stroke-miterlimit="50" stroke-width="2" xlink:href="#wk2jf"/></g><g><use fill="#fff" fill-opacity="0" stroke="#ffdc00" stroke-linecap="round" stroke-miterlimit="50" stroke-width="2" xlink:href="#wk2jg"/></g><g><use fill="#fff" fill-opacity="0" stroke="#ffdc00" stroke-linecap="round" stroke-miterlimit="50" stroke-width="2" xlink:href="#wk2jh"/></g><g><use fill="#fff" fill-opacity="0" stroke="#ffdc00" stroke-linecap="round" stroke-miterlimit="50" stroke-width="2" xlink:href="#wk2ji"/></g><g><use fill="#fff" fill-opacity="0" stroke="#ffdc00" stroke-linecap="round" stroke-miterlimit="50" stroke-width="2" xlink:href="#wk2jj"/></g><g><use fill="#fff" fill-opacity="0" stroke="#ffdc00" stroke-linecap="round" stroke-miterlimit="50" stroke-width="2" xlink:href="#wk2jk"/></g><g><use fill="#fff" fill-opacity="0" stroke="#ffdc00" stroke-linecap="round" stroke-miterlimit="50" stroke-width="2" xlink:href="#wk2jl"/></g><g><use fill="#fff" fill-opacity="0" stroke="#ffdc00" stroke-miterlimit="50" stroke-width="4" clip-path="url(&quot;#wk2jm&quot;)" xlink:href="#wk2jb"/></g><g><use fill="#fff" fill-opacity="0" stroke="#ffdc00" stroke-linecap="round" stroke-miterlimit="50" stroke-width="2" xlink:href="#wk2jn"/></g><g><use fill="#fff" fill-opacity="0" stroke="#ffdc00" stroke-linecap="round" stroke-miterlimit="50" stroke-width="2" xlink:href="#wk2jo"/></g></g></g></g></svg>