<svg xmlns="http://www.w3.org/2000/svg" width="216.561" height="61.907" viewBox="0 0 5412.61 1547.28" shape-rendering="geometricPrecision" text-rendering="geometricPrecision" image-rendering="optimizeQuality" fill-rule="evenodd" clip-rule="evenodd"><g fill="#fff"><path d="M4957.76 1157.78H4782.2l-45.69-133.02h-241.78l-45.84 133.02h-171.65l20.35-55.16-4.78 2.98c-32.12 19.46-67.41 33.03-105.73 40.72-38.31 7.69-83.54 11.46-136.04 11.46h-294.23l-179.03-241.62H3501v241.62h-221.38l-45.69-133.02h-241.78l-45.84 133.02h-171.64l242.68-657.89h195.17l118.35 320.86V499.89h284.32c38.9 0 72.24 2.26 100.13 6.63 28.07 4.37 54.16 14.03 78.58 28.66 9.06 5.41 17.46 11.39 25.17 17.95v-53.24h238.61c53.53 0 99.84 4.52 138.75 13.42 38.92 9.05 71.65 21.72 98.03 38.31 45.41 27.61 81.14 65.01 107.24 111.92 13.11 23.63 22.91 49.35 29.41 77.14l88.82-240.79h195.16l242.68 657.89zm-261.99-253.39l-80.24-233.92-80.24 233.92h160.47zm-431.48-76.46c0-43.14-7.84-80.09-23.52-110.86-15.69-30.77-40.42-54.74-74.51-72.09-17.19-8.44-34.84-14.33-52.94-17.34-17.95-3.16-45.1-4.67-81.45-4.67h-42.69v410.84h42.69c40.12 0 69.53-1.81 88.24-5.57 18.85-3.63 37.1-10.27 55.04-20.06 30.62-17.49 53.25-41.19 67.57-70.73 14.33-29.42 21.57-66.07 21.57-109.5zm-566.01-127.15c0-16.29-3.33-30.31-9.97-41.93-6.78-11.76-18.24-20.96-34.53-27.59-11.32-4.69-24.44-7.55-39.51-8.6-15.09-1.06-32.73-1.52-52.8-1.52h-60.49v175.57h51.44c26.7 0 49.02-1.36 66.97-3.92 18.09-2.72 33.18-8.6 45.39-17.95 11.62-9.06 20.06-19.01 25.5-30.01 5.28-11.01 7.99-25.65 7.99-44.05zm-505.09 203.61l-80.24-233.92-80.24 233.92h160.47zm-715.86 73.16c-6.63 52.7-33.53 96.47-80.73 131.21-54.9 40.57-129.41 60.79-223.52 60.79-54.45 0-101.95-4.83-142.38-14.33-40.57-9.5-78.43-21.72-113.72-36.35V961.41h18.55c34.99 27.9 74.21 49.32 117.49 64.41 43.44 14.93 85.06 22.46 125.03 22.46 10.4 0 23.82-.9 40.72-2.71 16.74-1.65 30.31-4.68 41.03-8.75 12.81-5.42 23.52-12.06 31.98-19.91 8.29-7.99 12.52-19.91 12.52-35.44 0-14.48-6.04-26.85-18.26-37.41-12.21-10.4-30.16-18.39-53.68-23.97-24.73-5.89-50.83-11.47-78.43-16.59-27.44-5.13-53.38-11.76-77.52-19.61-55.36-17.95-95.02-42.38-119.31-73.15-24.28-30.76-36.5-68.93-36.5-114.62 0-61.23 27.45-111.16 82.35-149.92 54.9-38.76 125.49-58.07 211.76-58.07 41.96 0 83.33 3.98 124.29 11.77h142.48l158.98 461.97 158.96-461.97h173.45l-239.82 657.89h-190.03l-65.7-180.23zm-124.2-340.73c-5.16-2.13-10.42-4.18-15.8-6.18-38.46-14.17-77.67-21.25-117.65-21.25-14.17 0-28.2.9-42.07 2.86-14.03 1.96-27.45 5.43-40.42 10.71-11.47 4.52-21.26 11.16-29.56 20.05-8.29 8.9-12.37 19.16-12.37 30.62 0 17.34 6.63 30.63 19.89 39.98 13.28 9.19 38.17 17.65 74.98 25.33 24.12 4.98 47.35 9.97 69.68 14.63 22.16 4.69 46 11.16 71.64 19.45 35.86 11.71 64.99 26.47 87.45 44.24l-65.78-180.44zM5412.6 499.89l-242.53 403.45v254.45h-170.13v-246.6l-246.14-411.3h193.06l141.62 253.98 137.26-253.98h186.87zM3819.05 971.1V824.52c-19.92 19.6-44.7 36.62-74.33 51.07l74.33 95.51z" fill-rule="nonzero"/><path d="M78.78 807.26L292.59 9.31 257.87.01 44.06 797.96l34.72 9.3zm-44.06 442.25l255.83-954.76-34.72-9.3L0 1240.21l34.72 9.3zm69.46 18.61L431.5 46.53l-34.72-9.3L69.45 1258.82l34.73 9.3zm69.45 18.61l193.73-723-34.72-9.3-193.73 723 34.72 9.3zm69.46 18.61L570.42 83.75l-34.73-9.3-327.32 1221.59 34.72 9.3zm69.46 18.61L458.4 779.61l-34.72-9.3-145.86 544.34 34.73 9.3zm69.45 18.61L709.33 120.97l-34.72-9.3-327.33 1221.59 34.72 9.3zm69.46 18.61l88.93-331.89-34.72-9.3-88.93 331.89 34.72 9.3zm69.45 18.62l327.33-1221.6-34.72-9.3-327.33 1221.59 34.72 9.31zm233.12-592.18L917.7 176.82l-34.72-9.31-163.67 610.8 34.72 9.3zm-94.2 629.4L987.15 195.42l-34.72-9.3L625.1 1407.71l34.73 9.3zM942.42 640.2l114.19-426.16-34.72-9.3-114.2 426.16 34.73 9.3zm-143.68 814.03l327.33-1221.59-34.73-9.3-327.32 1221.59 34.72 9.3zm327.87-945.8l68.9-257.18-34.72-9.3-68.91 257.18 34.73 9.3zm-188.97 983.02l327.33-1221.59-34.72-9.3-327.33 1221.59 34.72 9.3zm69.46 18.61l117.39-438.11-34.72-9.31-117.39 438.12 34.72 9.3zm69.46 18.62l327.32-1221.6-34.72-9.3-327.33 1221.6 34.73 9.3zm69.45 18.61l64.35-240.16-34.72-9.31-64.35 240.16 34.72 9.3z"/></g></svg>