<svg xmlns="http://www.w3.org/2000/svg" viewBox="0 0 607.787 607.787">
  <defs>
    <style>
      .cls-1 {
        fill: #ffdc00;
        fill-rule: evenodd;
      }
    </style>
  </defs>
  <g id="_4" data-name="4" transform="translate(303.349) rotate(45)">
    <path id="Path_53" data-name="Path 53" class="cls-1" d="M0,0H6.809V6.809H0ZM422.191,422.191H429V429h-6.809Zm-13.617,0h6.809V429h-6.809Zm-13.617,0h6.809V429h-6.809Zm-13.617,0h6.809V429h-6.809Zm-13.617,0h6.809V429h-6.809Zm-13.617,0h6.809V429H354.1Zm-13.617,0H347.3V429h-6.809Zm-13.617,0h6.809V429h-6.809Zm-13.617,0h6.809V429h-6.809Zm-13.617,0h6.809V429h-6.809Zm-13.617,0h6.809V429h-6.809Zm-13.617,0h6.809V429H272.4Zm-13.617,0h6.809V429h-6.809Zm-13.617,0h6.809V429h-6.809Zm-13.617,0h6.809V429h-6.809Zm-13.617,0h6.809V429h-6.809Zm-13.617,0h6.809V429h-6.809Zm-13.617,0H197.5V429h-6.809Zm-13.617,0h6.809V429h-6.809Zm-13.617,0h6.809V429h-6.809Zm-13.617,0h6.809V429h-6.809Zm-13.617,0h6.809V429h-6.809Zm-13.617,0h6.809V429h-6.809Zm-13.617,0H115.8V429h-6.809Zm-13.617,0h6.809V429H95.372Zm-13.617,0h6.809V429H81.755Zm-13.617,0h6.809V429H68.137Zm-13.617,0h6.809V429H54.52Zm-13.617,0h6.809V429H40.9Zm-13.617,0h6.809V429H27.285Zm-13.617,0h6.809V429H13.667v-6.809Zm-13.617,0H6.858V429H.05Zm422.191-13.617h6.809v6.809h-6.809Zm-13.617,0h6.809v6.809h-6.809Zm-13.617,0h6.809v6.809h-6.809Zm-13.617,0H388.2v6.809h-6.809Zm-13.617,0h6.809v6.809h-6.809Zm-13.617,0h6.809v6.809h-6.809Zm-13.617,0h6.809v6.809h-6.809Zm-13.617,0h6.809v6.809h-6.809Zm-13.617,0h6.809v6.809H313.3Zm-13.617,0h6.809v6.809h-6.809Zm-13.617,0h6.809v6.809h-6.809Zm-13.617,0h6.809v6.809h-6.809Zm-13.617,0h6.809v6.809h-6.809Zm-13.617,0h6.809v6.809h-6.809Zm-13.617,0h6.809v6.809H231.6Zm-13.617,0h6.809v6.809h-6.809Zm-13.617,0h6.809v6.809h-6.809Zm-13.617,0h6.809v6.809h-6.809Zm-13.617,0h6.809v6.809h-6.809v-6.809Zm-13.617,0h6.809v6.809h-6.809Zm-13.617,0H156.7v6.809h-6.809Zm-13.617,0h6.809v6.809h-6.809Zm-13.617,0h6.809v6.809h-6.809Zm-13.617,0h6.809v6.809h-6.809Zm-13.617,0h6.809v6.809H95.422Zm-13.617,0h6.809v6.809H81.8Zm-13.617,0H75v6.809H68.187Zm-13.617,0h6.809v6.809H54.569Zm-13.617,0h6.809v6.809H40.952Zm-13.617,0h6.809v6.809H27.334Zm-13.617,0h6.809v6.809H13.717v-6.809Zm-13.617,0H6.908v6.809H.1Zm422.191-13.617H429.1v6.809h-6.809Zm-13.617,0h6.809v6.809h-6.809Zm-13.617,0h6.809v6.809h-6.809Zm-13.617,0h6.809v6.809h-6.809Zm-13.617,0h6.809v6.809h-6.809Zm-13.617,0h6.809v6.809H354.2Zm-13.617,0h6.809v6.809h-6.809Zm-13.617,0h6.809v6.809h-6.809Zm-13.617,0h6.809v6.809h-6.809Zm-13.617,0h6.809v6.809h-6.809Zm-13.617,0h6.809v6.809h-6.809Zm-13.617,0h6.809v6.809H272.5Zm-13.617,0h6.809v6.809h-6.809Zm-13.617,0h6.809v6.809h-6.809Zm-13.617,0h6.809v6.809h-6.809Zm-13.617,0h6.809v6.809h-6.809Zm-13.617,0h6.809v6.809h-6.809Zm-13.617,0H197.6v6.809h-6.809Zm-13.617,0h6.809v6.809h-6.809v-6.809Zm-13.617,0h6.809v6.809h-6.809Zm-13.617,0h6.809v6.809h-6.809Zm-13.617,0h6.809v6.809h-6.809Zm-13.617,0h6.809v6.809h-6.809Zm-13.617,0H115.9v6.809h-6.809Zm-13.617,0h6.809v6.809H95.471Zm-13.617,0h6.809v6.809H81.854Zm-13.617,0h6.809v6.809H68.236Zm-13.617,0h6.809v6.809H54.619Zm-13.617,0H47.81v6.809H41Zm-13.617,0h6.809v6.809H27.384Zm-13.617,0h6.809v6.809H13.767v-6.809Zm-13.617,0H6.958v6.809H.149ZM422.34,381.339h6.809v6.809H422.34Zm-13.617,0h6.809v6.809h-6.809Zm-13.617,0h6.809v6.809h-6.809Zm-13.617,0H388.3v6.809h-6.809Zm-13.617,0h6.809v6.809h-6.809Zm-13.617,0h6.809v6.809h-6.809Zm-13.617,0h6.809v6.809h-6.809Zm-13.617,0h6.809v6.809h-6.809Zm-13.617,0h6.809v6.809H313.4Zm-13.617,0h6.809v6.809h-6.809Zm-13.617,0h6.809v6.809h-6.809Zm-13.617,0h6.809v6.809h-6.809Zm-13.617,0h6.809v6.809h-6.809Zm-13.617,0h6.809v6.809h-6.809Zm-13.617,0H238.5v6.809H231.7Zm-13.617,0h6.809v6.809h-6.809Zm-13.617,0h6.809v6.809h-6.809Zm-13.617,0h6.809v6.809h-6.809Zm-13.617,0h6.809v6.809h-6.809Zm-13.617,0h6.809v6.809h-6.809Zm-13.617,0H156.8v6.809h-6.809Zm-13.617,0h6.809v6.809h-6.809Zm-13.617,0h6.809v6.809h-6.809Zm-13.617,0h6.809v6.809h-6.809Zm-13.617,0h6.809v6.809H95.521Zm-13.617,0h6.809v6.809H81.9Zm-13.617,0h6.809v6.809H68.286Zm-13.617,0h6.809v6.809H54.669Zm-13.617,0H47.86v6.809H41.051Zm-13.617,0h6.809v6.809H27.434Zm-13.617,0h6.809v6.809H13.816v-6.809Zm-13.617,0H7.007v6.809H.2ZM422.39,367.721H429.2v6.809H422.39Zm-13.617,0h6.809v6.809h-6.809Zm-13.617,0h6.809v6.809h-6.809Zm-13.617,0h6.809v6.809h-6.809Zm-13.617,0h6.809v6.809H367.92Zm-13.617,0h6.809v6.809H354.3Zm-13.617,0h6.809v6.809h-6.809Zm-13.617,0h6.809v6.809h-6.809Zm-13.617,0h6.809v6.809H313.45Zm-13.617,0h6.809v6.809h-6.809Zm-13.617,0h6.809v6.809h-6.809Zm-13.617,0h6.809v6.809H272.6Zm-13.617,0h6.809v6.809H258.98Zm-13.617,0h6.809v6.809h-6.809Zm-13.617,0h6.809v6.809h-6.809Zm-13.617,0h6.809v6.809h-6.809Zm-13.617,0h6.809v6.809h-6.809Zm-13.617,0H197.7v6.809h-6.809Zm-13.617,0h6.809v6.809h-6.809v-6.809Zm-13.617,0h6.809v6.809h-6.809Zm-13.617,0h6.809v6.809h-6.809Zm-13.617,0h6.809v6.809h-6.809Zm-13.617,0h6.809v6.809h-6.809Zm-13.617,0H116v6.809h-6.809Zm-13.617,0h6.809v6.809H95.571Zm-13.617,0h6.809v6.809H81.953Zm-13.617,0h6.809v6.809H68.336Zm-13.617,0h6.809v6.809H54.718Zm-13.617,0H47.91v6.809H41.1Zm-13.617,0h6.809v6.809H27.483Zm-13.617,0h6.809v6.809H13.866v-6.809Zm-13.617,0H7.057v6.809H.248ZM422.44,354.1h6.809v6.809H422.44Zm-13.617,0h6.809v6.809h-6.809Zm-13.617,0h6.809v6.809H395.2Zm-13.617,0H388.4v6.809h-6.809Zm-13.617,0h6.809v6.809H367.97Zm-13.617,0h6.809v6.809h-6.809Zm-13.617,0h6.809v6.809h-6.809Zm-13.617,0h6.809v6.809h-6.809Zm-13.617,0h6.809v6.809H313.5Zm-13.617,0h6.809v6.809h-6.809Zm-13.617,0h6.809v6.809h-6.809Zm-13.617,0h6.809v6.809h-6.809Zm-13.617,0h6.809v6.809H259.03Zm-13.617,0h6.809v6.809h-6.809Zm-13.617,0H238.6v6.809H231.8Zm-13.617,0h6.809v6.809h-6.809Zm-13.617,0h6.809v6.809H204.56Zm-13.617,0h6.809v6.809h-6.809Zm-13.617,0h6.809v6.809h-6.809V354.1Zm-13.617,0h6.809v6.809h-6.809Zm-13.617,0H156.9v6.809H150.09Zm-13.617,0h6.809v6.809h-6.809Zm-13.617,0h6.809v6.809h-6.809Zm-13.617,0h6.809v6.809h-6.809Zm-13.617,0h6.809v6.809H95.62ZM82,354.1h6.809v6.809H82Zm-13.617,0h6.809v6.809H68.385Zm-13.617,0h6.809v6.809H54.768Zm-13.617,0h6.809v6.809H41.151Zm-13.617,0h6.809v6.809H27.533Zm-13.617,0h6.809v6.809H13.916V354.1ZM.3,354.1H7.107v6.809H.3Zm422.191-13.617H429.3V347.3h-6.809Zm-13.617,0h6.809V347.3h-6.809Zm-13.617,0h6.809V347.3h-6.809Zm-13.617,0h6.809V347.3h-6.809Zm-13.617,0h6.809V347.3H368.02Zm-13.617,0h6.809V347.3H354.4Zm-13.617,0h6.809V347.3h-6.809Zm-13.617,0h6.809V347.3h-6.809Zm-13.617,0h6.809V347.3H313.55Zm-13.617,0h6.809V347.3h-6.809Zm-13.617,0h6.809V347.3h-6.809Zm-13.617,0h6.809V347.3H272.7Zm-13.617,0h6.809V347.3H259.08Zm-13.617,0h6.809V347.3h-6.809Zm-13.617,0h6.809V347.3h-6.809Zm-13.617,0h6.809V347.3h-6.809Zm-13.617,0h6.809V347.3H204.61Zm-13.617,0H197.8V347.3h-6.809Zm-13.617,0h6.809V347.3h-6.809v-6.809Zm-13.617,0h6.809V347.3h-6.809Zm-13.617,0h6.809V347.3H150.14Zm-13.617,0h6.809V347.3h-6.809Zm-13.617,0h6.809V347.3h-6.809Zm-13.617,0H116.1V347.3h-6.809Zm-13.617,0h6.809V347.3H95.67Zm-13.617,0h6.809V347.3H82.053Zm-13.617,0h6.809V347.3H68.435Zm-13.617,0h6.809V347.3H54.818Zm-13.617,0h6.809V347.3H41.2Zm-13.617,0h6.809V347.3H27.583Zm-13.617,0h6.809V347.3H13.965v-6.809Zm-13.617,0H7.157V347.3H.348Zm422.191-13.617h6.809v6.809h-6.809Zm-13.617,0h6.809v6.809h-6.809Zm-13.617,0h6.809v6.809H395.3Zm-13.617,0H388.5v6.809h-6.809Zm-13.617,0h6.809v6.809h-6.809Zm-13.617,0h6.809v6.809h-6.809Zm-13.617,0h6.809v6.809h-6.809Zm-13.617,0h6.809v6.809h-6.809Zm-13.617,0h6.809v6.809H313.6Zm-13.617,0h6.809v6.809h-6.809Zm-13.617,0h6.809v6.809h-6.809Zm-13.617,0h6.809v6.809h-6.809Zm-13.617,0h6.809v6.809h-6.809Zm-13.617,0h6.809v6.809h-6.809Zm-13.617,0H238.7v6.809h-6.809Zm-13.617,0h6.809v6.809h-6.809Zm-13.617,0h6.809v6.809H204.66Zm-13.617,0h6.809v6.809h-6.809Zm-13.617,0h6.809v6.809h-6.809Zm-13.617,0h6.809v6.809h-6.809Zm-13.617,0H157v6.809H150.19Zm-13.617,0h6.809v6.809h-6.809Zm-13.617,0h6.809v6.809h-6.809Zm-13.617,0h6.809v6.809h-6.809Zm-13.617,0h6.809v6.809H95.72Zm-13.617,0h6.809v6.809H82.1Zm-13.617,0h6.809v6.809H68.485Zm-13.617,0h6.809v6.809H54.867Zm-13.617,0h6.809v6.809H41.25Zm-13.617,0h6.809v6.809H27.632Zm-13.617,0h6.809v6.809H14.015v-6.809Zm-13.617,0H7.206v6.809H.4Zm422.191-13.617H429.4v6.809h-6.809Zm-13.617,0h6.809v6.809h-6.809Zm-13.617,0h6.809v6.809h-6.809Zm-13.617,0h6.809v6.809h-6.809Zm-13.617,0h6.809v6.809h-6.809Zm-13.617,0h6.809v6.809H354.5Zm-13.617,0h6.809v6.809h-6.809Zm-13.617,0h6.809v6.809h-6.809Zm-13.617,0h6.809v6.809h-6.809Zm-13.617,0h6.809v6.809h-6.809Zm-13.617,0h6.809v6.809h-6.809Zm-13.617,0h6.809v6.809H272.8Zm-13.617,0h6.809v6.809h-6.809Zm-13.617,0h6.809v6.809h-6.809Zm-13.617,0h6.809v6.809h-6.809Zm-13.617,0h6.809v6.809h-6.809Zm-13.617,0h6.809v6.809h-6.809Zm-13.617,0H197.9v6.809h-6.809Zm-13.617,0h6.809v6.809h-6.809v-6.809Zm-13.617,0h6.809v6.809h-6.809Zm-13.617,0h6.809v6.809h-6.809Zm-13.617,0h6.809v6.809h-6.809Zm-13.617,0h6.809v6.809H123Zm-13.617,0H116.2v6.809h-6.809Zm-13.617,0h6.809v6.809H95.769Zm-13.617,0h6.809v6.809H82.152Zm-13.617,0h6.809v6.809H68.535Zm-13.617,0h6.809v6.809H54.917Zm-13.617,0h6.809v6.809H41.3Zm-13.617,0h6.809v6.809H27.682Zm-13.617,0h6.809v6.809H14.065v-6.809Zm-13.617,0H7.256v6.809H.447Zm422.191-13.617h6.809v6.809h-6.809Zm-13.617,0h6.809v6.809h-6.809Zm-13.617,0h6.809v6.809H395.4Zm-13.617,0h6.809v6.809h-6.809Zm-13.617,0h6.809v6.809h-6.809Zm-13.617,0h6.809v6.809h-6.809Zm-13.617,0h6.809v6.809h-6.809Zm-13.617,0h6.809v6.809h-6.809Zm-13.617,0h6.809v6.809H313.7Zm-13.617,0h6.809v6.809h-6.809Zm-13.617,0h6.809v6.809h-6.809Zm-13.617,0h6.809v6.809h-6.809Zm-13.617,0h6.809v6.809h-6.809Zm-13.617,0h6.809v6.809h-6.809Zm-13.617,0H238.8v6.809h-6.809Zm-13.617,0h6.809v6.809h-6.809Zm-13.617,0h6.809v6.809h-6.809Zm-13.617,0h6.809v6.809h-6.809Zm-13.617,0h6.809v6.809h-6.809v-6.809Zm-13.617,0h6.809v6.809h-6.809Zm-13.617,0H157.1v6.809h-6.809Zm-13.617,0h6.809v6.809h-6.809Zm-13.617,0h6.809v6.809h-6.809Zm-13.617,0h6.809v6.809h-6.809Zm-13.617,0h6.809v6.809H95.819Zm-13.617,0H89.01v6.809H82.2Zm-13.617,0h6.809v6.809H68.584Zm-13.617,0h6.809v6.809H54.967Zm-13.617,0h6.809v6.809H41.349Zm-13.617,0h6.809v6.809H27.732Zm-13.617,0h6.809v6.809H14.114v-6.809Zm-13.617,0H7.306v6.809H.5Zm422.191-13.617H429.5v6.809h-6.809Zm-13.617,0h6.809v6.809h-6.809Zm-13.617,0h6.809v6.809h-6.809Zm-13.617,0h6.809v6.809h-6.809Zm-13.617,0h6.809v6.809h-6.809Zm-13.617,0h6.809v6.809H354.6Zm-13.617,0h6.809v6.809h-6.809Zm-13.617,0h6.809v6.809h-6.809Zm-13.617,0h6.809v6.809h-6.809Zm-13.617,0h6.809v6.809h-6.809Zm-13.617,0h6.809v6.809h-6.809Zm-13.617,0H279.7v6.809H272.9Zm-13.617,0h6.809v6.809h-6.809Zm-13.617,0h6.809v6.809h-6.809Zm-13.617,0h6.809v6.809h-6.809Zm-13.617,0h6.809v6.809h-6.809Zm-13.617,0h6.809v6.809h-6.809Zm-13.617,0H198v6.809h-6.809Zm-13.617,0h6.809v6.809h-6.809Zm-13.617,0h6.809v6.809h-6.809Zm-13.617,0h6.809v6.809h-6.809Zm-13.617,0h6.809v6.809h-6.809Zm-13.617,0h6.809v6.809H123.1Zm-13.617,0H116.3v6.809h-6.809Zm-13.617,0h6.809v6.809H95.869Zm-13.617,0H89.06v6.809H82.251Zm-13.617,0h6.809v6.809H68.634Zm-13.617,0h6.809v6.809H55.016Zm-13.617,0h6.809v6.809H41.4Zm-13.617,0H34.59v6.809H27.781Zm-13.617,0h6.809v6.809H14.164v-6.809Zm-13.617,0H7.355v6.809H.547ZM422.738,272.4h6.809v6.809h-6.809Zm-13.617,0h6.809v6.809H409.12Zm-13.617,0h6.809v6.809H395.5Zm-13.617,0h6.809v6.809h-6.809Zm-13.617,0h6.809v6.809h-6.809Zm-13.617,0h6.809v6.809h-6.809Zm-13.617,0h6.809v6.809h-6.809Zm-13.617,0h6.809v6.809h-6.809Zm-13.617,0h6.809v6.809H313.8Zm-13.617,0h6.809v6.809h-6.809Zm-13.617,0h6.809v6.809h-6.809Zm-13.617,0h6.809v6.809h-6.809Zm-13.617,0h6.809v6.809h-6.809Zm-13.617,0h6.809v6.809h-6.809Zm-13.617,0H238.9v6.809h-6.809Zm-13.617,0h6.809v6.809h-6.809Zm-13.617,0h6.809v6.809h-6.809Zm-13.617,0h6.809v6.809h-6.809Zm-13.617,0h6.809v6.809h-6.809V272.4Zm-13.617,0h6.809v6.809h-6.809Zm-13.617,0H157.2v6.809h-6.809Zm-13.617,0h6.809v6.809h-6.809Zm-13.617,0h6.809v6.809h-6.809Zm-13.617,0h6.809v6.809h-6.809Zm-13.617,0h6.809v6.809H95.919Zm-13.617,0H89.11v6.809H82.3Zm-13.617,0h6.809v6.809H68.684Zm-13.617,0h6.809v6.809H55.066Zm-13.617,0h6.809v6.809H41.449Zm-13.617,0H34.64v6.809H27.831Zm-13.617,0h6.809v6.809H14.214V272.4ZM.6,272.4H7.4v6.809H.6Zm422.191-13.617H429.6v6.809h-6.809Zm-13.617,0h6.809v6.809H409.17Zm-13.617,0h6.809v6.809h-6.809Zm-13.617,0h6.809v6.809h-6.809Zm-13.617,0h6.809v6.809h-6.809Zm-13.617,0h6.809v6.809H354.7Zm-13.617,0h6.809v6.809h-6.809Zm-13.617,0h6.809v6.809h-6.809Zm-13.617,0h6.809v6.809h-6.809Zm-13.617,0h6.809v6.809H300.23Zm-13.617,0h6.809v6.809h-6.809Zm-13.617,0H279.8v6.809H273Zm-13.617,0h6.809v6.809h-6.809Zm-13.617,0h6.809v6.809H245.76Zm-13.617,0h6.809v6.809h-6.809Zm-13.617,0h6.809v6.809h-6.809Zm-13.617,0h6.809v6.809h-6.809Zm-13.617,0H198.1v6.809h-6.809Zm-13.617,0h6.809v6.809h-6.809v-6.809Zm-13.617,0h6.809v6.809h-6.809Zm-13.617,0h6.809v6.809h-6.809Zm-13.617,0h6.809v6.809h-6.809Zm-13.617,0h6.809v6.809H123.2Zm-13.617,0h6.809v6.809h-6.809Zm-13.617,0h6.809v6.809H95.968Zm-13.617,0h6.809v6.809H82.351Zm-13.617,0h6.809v6.809H68.733Zm-13.617,0h6.809v6.809H55.116Zm-13.617,0h6.809v6.809H41.5Zm-13.617,0H34.69v6.809H27.881Zm-13.617,0h6.809v6.809H14.263v-6.809Zm-13.617,0H7.455v6.809H.646Zm422.191-13.617h6.809v6.809h-6.809Zm-13.617,0h6.809v6.809H409.22Zm-13.617,0h6.809v6.809H395.6Zm-13.617,0h6.809v6.809h-6.809Zm-13.617,0h6.809v6.809h-6.809Zm-13.617,0h6.809v6.809H354.75Zm-13.617,0h6.809v6.809h-6.809Zm-13.617,0h6.809v6.809h-6.809Zm-13.617,0h6.809v6.809H313.9Zm-13.617,0h6.809v6.809H300.28Zm-13.617,0h6.809v6.809h-6.809Zm-13.617,0h6.809v6.809h-6.809Zm-13.617,0h6.809v6.809h-6.809Zm-13.617,0h6.809v6.809H245.81Zm-13.617,0H239v6.809h-6.809Zm-13.617,0h6.809v6.809h-6.809Zm-13.617,0h6.809v6.809h-6.809Zm-13.617,0h6.809v6.809H191.34Zm-13.617,0h6.809v6.809h-6.809v-6.809Zm-13.617,0h6.809v6.809h-6.809Zm-13.617,0H157.3v6.809h-6.809Zm-13.617,0h6.809v6.809H136.87Zm-13.617,0h6.809v6.809h-6.809Zm-13.617,0h6.809v6.809h-6.809Zm-13.617,0h6.809v6.809H96.018Zm-13.617,0h6.809v6.809H82.4Zm-13.617,0h6.809v6.809H68.783Zm-13.617,0h6.809v6.809H55.165Zm-13.617,0h6.809v6.809H41.548Zm-13.617,0h6.809v6.809H27.931Zm-13.617,0h6.809v6.809H14.313v-6.809Zm-13.617,0H7.5v6.809H.7Zm422.191-13.617H429.7v6.809h-6.809Zm-13.617,0h6.809v6.809h-6.809Zm-13.617,0h6.809v6.809h-6.809Zm-13.617,0h6.809v6.809h-6.809Zm-13.617,0h6.809v6.809h-6.809Zm-13.617,0h6.809v6.809H354.8Zm-13.617,0h6.809v6.809h-6.809Zm-13.617,0h6.809v6.809h-6.809Zm-13.617,0h6.809v6.809h-6.809Zm-13.617,0h6.809v6.809H300.33Zm-13.617,0h6.809v6.809h-6.809Zm-13.617,0H279.9v6.809h-6.809Zm-13.617,0h6.809v6.809h-6.809Zm-13.617,0h6.809v6.809H245.86Zm-13.617,0h6.809v6.809h-6.809Zm-13.617,0h6.809v6.809h-6.809Zm-13.617,0h6.809v6.809h-6.809Zm-13.617,0H198.2v6.809H191.39Zm-13.617,0h6.809v6.809h-6.809Zm-13.617,0h6.809v6.809h-6.809Zm-13.617,0h6.809v6.809h-6.809Zm-13.617,0h6.809v6.809H136.92Zm-13.617,0h6.809v6.809H123.3Zm-13.617,0h6.809v6.809h-6.809Zm-13.617,0h6.809v6.809H96.068Zm-13.617,0h6.809v6.809H82.45Zm-13.617,0h6.809v6.809H68.833Zm-13.617,0h6.809v6.809H55.215Zm-13.617,0h6.809v6.809H41.6Zm-13.617,0h6.809v6.809H27.98Zm-13.617,0h6.809v6.809H14.363v-6.809Zm-13.617,0H7.554v6.809H.745Zm422.191-13.617h6.809v6.809h-6.809Zm-13.617,0h6.809v6.809h-6.809Zm-13.617,0h6.809v6.809H395.7Zm-13.617,0h6.809v6.809h-6.809Zm-13.617,0h6.809v6.809h-6.809Zm-13.617,0h6.809v6.809h-6.809Zm-13.617,0h6.809v6.809h-6.809Zm-13.617,0h6.809v6.809h-6.809Zm-13.617,0h6.809v6.809H314Zm-13.617,0h6.809v6.809h-6.809Zm-13.617,0h6.809v6.809h-6.809Zm-13.617,0h6.809v6.809h-6.809Zm-13.617,0h6.809v6.809h-6.809Zm-13.617,0h6.809v6.809H245.91Zm-13.617,0H239.1v6.809h-6.809Zm-13.617,0h6.809v6.809h-6.809Zm-13.617,0h6.809v6.809h-6.809Zm-13.617,0h6.809v6.809H191.44Zm-13.617,0h6.809v6.809h-6.809v-6.809Zm-13.617,0h6.809v6.809H164.2Zm-13.617,0H157.4v6.809h-6.809Zm-13.617,0h6.809v6.809H136.97Zm-13.617,0h6.809v6.809h-6.809Zm-13.617,0h6.809v6.809h-6.809Zm-13.617,0h6.809v6.809H96.117Zm-13.617,0h6.809v6.809H82.5Zm-13.617,0h6.809v6.809H68.882Zm-13.617,0h6.809v6.809H55.265Zm-13.617,0h6.809v6.809H41.647Zm-13.617,0h6.809v6.809H28.03Zm-13.617,0h6.809v6.809H14.412v-6.809Zm-13.617,0H7.6v6.809H.795Zm422.191-13.617H429.8v6.809h-6.809Zm-13.617,0h6.809v6.809h-6.809Zm-13.617,0h6.809v6.809h-6.809Zm-13.617,0h6.809v6.809h-6.809Zm-13.617,0h6.809v6.809h-6.809Zm-13.617,0h6.809v6.809H354.9Zm-13.617,0h6.809v6.809h-6.809Zm-13.617,0h6.809v6.809h-6.809Zm-13.617,0h6.809v6.809h-6.809Zm-13.617,0h6.809v6.809h-6.809Zm-13.617,0h6.809v6.809h-6.809Zm-13.617,0H280v6.809h-6.809Zm-13.617,0h6.809v6.809h-6.809Zm-13.617,0h6.809v6.809h-6.809Zm-13.617,0h6.809v6.809h-6.809Zm-13.617,0h6.809v6.809h-6.809Zm-13.617,0h6.809v6.809h-6.809Zm-13.617,0H198.3v6.809h-6.809Zm-13.617,0h6.809v6.809h-6.809v-6.809Zm-13.617,0h6.809v6.809h-6.809Zm-13.617,0h6.809v6.809h-6.809Zm-13.617,0h6.809v6.809h-6.809Zm-13.617,0h6.809v6.809H123.4Zm-13.617,0h6.809v6.809h-6.809Zm-13.617,0h6.809v6.809H96.167Zm-13.617,0h6.809v6.809H82.55Zm-13.617,0h6.809v6.809H68.932Zm-13.617,0h6.809v6.809H55.315Zm-13.617,0h6.809v6.809H41.7Zm-13.617,0h6.809v6.809H28.08Zm-13.617,0h6.809v6.809H14.462v-6.809Zm-13.617,0H7.653v6.809H.845Zm422.191-13.617h6.809V197.5h-6.809Zm-13.617,0h6.809V197.5h-6.809Zm-13.617,0h6.809V197.5H395.8Zm-13.617,0h6.809V197.5h-6.809Zm-13.617,0h6.809V197.5h-6.809Zm-13.617,0h6.809V197.5h-6.809Zm-13.617,0h6.809V197.5h-6.809Zm-13.617,0h6.809V197.5h-6.809Zm-13.617,0H320.9V197.5H314.1Zm-13.617,0h6.809V197.5h-6.809Zm-13.617,0h6.809V197.5h-6.809Zm-13.617,0h6.809V197.5h-6.809Zm-13.617,0h6.809V197.5h-6.809Zm-13.617,0h6.809V197.5h-6.809Zm-13.617,0H239.2V197.5h-6.809Zm-13.617,0h6.809V197.5h-6.809Zm-13.617,0h6.809V197.5h-6.809Zm-13.617,0h6.809V197.5h-6.809Zm-13.617,0h6.809V197.5h-6.809Zm-13.617,0h6.809V197.5H164.3Zm-13.617,0H157.5V197.5h-6.809Zm-13.617,0h6.809V197.5h-6.809Zm-13.617,0h6.809V197.5h-6.809Zm-13.617,0h6.809V197.5h-6.809Zm-13.617,0h6.809V197.5H96.217Zm-13.617,0h6.809V197.5H82.6Zm-13.617,0H75.79V197.5H68.982Zm-13.617,0h6.809V197.5H55.364Zm-13.617,0h6.809V197.5H41.747Zm-13.617,0h6.809V197.5H28.129Zm-13.617,0h6.809V197.5H14.512v-6.809Zm-13.617,0H7.7V197.5H.894Zm422.191-13.617h6.809v6.809h-6.809Zm-13.617,0h6.809v6.809h-6.809Zm-13.617,0h6.809v6.809h-6.809Zm-13.617,0h6.809v6.809h-6.809Zm-13.617,0h6.809v6.809h-6.809Zm-13.617,0h6.809v6.809H355Zm-13.617,0h6.809v6.809h-6.809Zm-13.617,0h6.809v6.809h-6.809Zm-13.617,0h6.809v6.809h-6.809Zm-13.617,0h6.809v6.809h-6.809Zm-13.617,0h6.809v6.809h-6.809Zm-13.617,0H280.1v6.809h-6.809Zm-13.617,0h6.809v6.809h-6.809Zm-13.617,0h6.809v6.809h-6.809Zm-13.617,0h6.809v6.809h-6.809Zm-13.617,0h6.809v6.809h-6.809Zm-13.617,0h6.809v6.809h-6.809Zm-13.617,0H198.4v6.809h-6.809Zm-13.617,0h6.809v6.809h-6.809v-6.809Zm-13.617,0h6.809v6.809h-6.809Zm-13.617,0h6.809v6.809h-6.809Zm-13.617,0h6.809v6.809h-6.809Zm-13.617,0h6.809v6.809H123.5Zm-13.617,0h6.809v6.809h-6.809Zm-13.617,0h6.809v6.809H96.266Zm-13.617,0h6.809v6.809H82.649Zm-13.617,0H75.84v6.809H69.031Zm-13.617,0h6.809v6.809H55.414Zm-13.617,0h6.809v6.809H41.8Zm-13.617,0h6.809v6.809H28.179Zm-13.617,0H21.37v6.809H14.562v-6.809Zm-13.617,0H7.753v6.809H.944Zm422.191-13.617h6.809v6.809h-6.809Zm-13.617,0h6.809v6.809h-6.809Zm-13.617,0h6.809v6.809H395.9Zm-13.617,0h6.809v6.809h-6.809Zm-13.617,0h6.809v6.809h-6.809Zm-13.617,0h6.809v6.809h-6.809Zm-13.617,0h6.809v6.809h-6.809Zm-13.617,0h6.809v6.809h-6.809Zm-13.617,0H321v6.809H314.2Zm-13.617,0h6.809v6.809h-6.809Zm-13.617,0h6.809v6.809h-6.809Zm-13.617,0h6.809v6.809h-6.809Zm-13.617,0h6.809v6.809h-6.809Zm-13.617,0h6.809v6.809h-6.809Zm-13.617,0H239.3v6.809h-6.809Zm-13.617,0h6.809v6.809h-6.809Zm-13.617,0h6.809v6.809h-6.809Zm-13.617,0h6.809v6.809h-6.809Zm-13.617,0h6.809v6.809h-6.809v-6.809Zm-13.617,0h6.809v6.809H164.4Zm-13.617,0h6.809v6.809h-6.809Zm-13.617,0h6.809v6.809h-6.809Zm-13.617,0h6.809v6.809h-6.809Zm-13.617,0h6.809v6.809h-6.809Zm-13.617,0h6.809v6.809H96.316Zm-13.617,0h6.809v6.809H82.7Zm-13.617,0H75.89v6.809H69.081Zm-13.617,0h6.809v6.809H55.464Zm-13.617,0h6.809v6.809H41.846Zm-13.617,0h6.809v6.809H28.229Zm-13.617,0H21.42v6.809H14.611v-6.809Zm-13.617,0H7.8v6.809H.994Zm422.191-13.617h6.809v6.809h-6.809Zm-13.617,0h6.809v6.809h-6.809Zm-13.617,0h6.809v6.809H395.95Zm-13.617,0h6.809v6.809h-6.809Zm-13.617,0h6.809v6.809h-6.809Zm-13.617,0h6.809v6.809H355.1Zm-13.617,0h6.809v6.809H341.48Zm-13.617,0h6.809v6.809h-6.809Zm-13.617,0h6.809v6.809h-6.809Zm-13.617,0h6.809v6.809h-6.809Zm-13.617,0h6.809v6.809H287.01Zm-13.617,0H280.2v6.809h-6.809Zm-13.617,0h6.809v6.809h-6.809Zm-13.617,0h6.809v6.809h-6.809Zm-13.617,0h6.809v6.809H232.54Zm-13.617,0h6.809v6.809h-6.809Zm-13.617,0h6.809v6.809h-6.809Zm-13.617,0H198.5v6.809h-6.809Zm-13.617,0h6.809v6.809h-6.809v-6.809Zm-13.617,0h6.809v6.809h-6.809Zm-13.617,0h6.809v6.809h-6.809Zm-13.617,0h6.809v6.809h-6.809Zm-13.617,0h6.809v6.809H123.6Zm-13.617,0h6.809v6.809h-6.809Zm-13.617,0h6.809v6.809H96.366Zm-13.617,0h6.809v6.809H82.748Zm-13.617,0H75.94v6.809H69.131Zm-13.617,0h6.809v6.809H55.513Zm-13.617,0H48.7v6.809H41.9Zm-13.617,0h6.809v6.809H28.278Zm-13.617,0H21.47v6.809H14.661v-6.809Zm-13.617,0H7.852v6.809H1.043Zm422.191-13.617h6.809v6.809h-6.809Zm-13.617,0h6.809v6.809h-6.809Zm-13.617,0h6.809v6.809H396Zm-13.617,0h6.809v6.809h-6.809Zm-13.617,0h6.809v6.809h-6.809Zm-13.617,0h6.809v6.809h-6.809Zm-13.617,0h6.809v6.809H341.53Zm-13.617,0h6.809v6.809h-6.809Zm-13.617,0H321.1v6.809H314.3Zm-13.617,0h6.809v6.809h-6.809Zm-13.617,0h6.809v6.809H287.06Zm-13.617,0h6.809v6.809h-6.809Zm-13.617,0h6.809v6.809h-6.809Zm-13.617,0h6.809v6.809h-6.809Zm-13.617,0H239.4v6.809H232.59Zm-13.617,0h6.809v6.809h-6.809Zm-13.617,0h6.809v6.809h-6.809Zm-13.617,0h6.809v6.809h-6.809Zm-13.617,0h6.809v6.809H178.12Zm-13.617,0h6.809v6.809H164.5Zm-13.617,0h6.809v6.809h-6.809Zm-13.617,0h6.809v6.809h-6.809Zm-13.617,0h6.809v6.809H123.65Zm-13.617,0h6.809v6.809h-6.809Zm-13.617,0h6.809v6.809H96.415Zm-13.617,0h6.809v6.809H82.8Zm-13.617,0h6.809v6.809H69.18Zm-13.617,0h6.809v6.809H55.563Zm-13.617,0h6.809v6.809H41.946Zm-13.617,0h6.809v6.809H28.328Zm-13.617,0h6.809v6.809H14.711v-6.809Zm-13.617,0H7.9v6.809H1.093Zm422.191-13.617h6.809v6.809h-6.809Zm-13.617,0h6.809v6.809h-6.809Zm-13.617,0h6.809v6.809h-6.809Zm-13.617,0h6.809v6.809h-6.809Zm-13.617,0h6.809v6.809h-6.809Zm-13.617,0h6.809v6.809H355.2Zm-13.617,0h6.809v6.809H341.58Zm-13.617,0h6.809v6.809h-6.809Zm-13.617,0h6.809v6.809h-6.809Zm-13.617,0h6.809v6.809h-6.809Zm-13.617,0h6.809v6.809H287.11Zm-13.617,0H280.3v6.809h-6.809Zm-13.617,0h6.809v6.809h-6.809Zm-13.617,0h6.809v6.809h-6.809Zm-13.617,0h6.809v6.809H232.64Zm-13.617,0h6.809v6.809h-6.809Zm-13.617,0h6.809v6.809H205.4Zm-13.617,0H198.6v6.809h-6.809Zm-13.617,0h6.809v6.809H178.17v-6.809Zm-13.617,0h6.809v6.809h-6.809Zm-13.617,0h6.809v6.809h-6.809Zm-13.617,0h6.809v6.809h-6.809Zm-13.617,0h6.809v6.809H123.7Zm-13.617,0h6.809v6.809h-6.809Zm-13.617,0h6.809v6.809H96.465Zm-13.617,0h6.809v6.809H82.848Zm-13.617,0h6.809v6.809H69.23Zm-13.617,0h6.809v6.809H55.613Zm-13.617,0H48.8v6.809H42Zm-13.617,0h6.809v6.809H28.378Zm-13.617,0h6.809v6.809H14.76v-6.809Zm-13.617,0H7.952v6.809H1.143Zm422.191-13.617h6.809V115.8h-6.809Zm-13.617,0h6.809V115.8h-6.809Zm-13.617,0h6.809V115.8H396.1Zm-13.617,0h6.809V115.8h-6.809Zm-13.617,0h6.809V115.8h-6.809Zm-13.617,0h6.809V115.8h-6.809Zm-13.617,0h6.809V115.8h-6.809Zm-13.617,0h6.809V115.8h-6.809Zm-13.617,0H321.2V115.8h-6.809Zm-13.617,0h6.809V115.8h-6.809Zm-13.617,0h6.809V115.8h-6.809Zm-13.617,0h6.809V115.8h-6.809Zm-13.617,0h6.809V115.8h-6.809Zm-13.617,0h6.809V115.8h-6.809Zm-13.617,0H239.5V115.8H232.69Zm-13.617,0h6.809V115.8h-6.809Zm-13.617,0h6.809V115.8h-6.809Zm-13.617,0h6.809V115.8h-6.809Zm-13.617,0h6.809V115.8H178.22v-6.809Zm-13.617,0h6.809V115.8H164.6Zm-13.617,0h6.809V115.8h-6.809Zm-13.617,0h6.809V115.8h-6.809Zm-13.617,0h6.809V115.8H123.75Zm-13.617,0h6.809V115.8h-6.809Zm-13.617,0h6.809V115.8H96.515Zm-13.617,0h6.809V115.8H82.9Zm-13.617,0h6.809V115.8H69.28Zm-13.617,0h6.809V115.8H55.662Zm-13.617,0h6.809V115.8H42.045Zm-13.617,0h6.809V115.8H28.427Zm-13.617,0h6.809V115.8H14.81v-6.809Zm-13.617,0H8V115.8H1.192ZM423.384,95.372h6.809v6.809h-6.809Zm-13.617,0h6.809v6.809h-6.809Zm-13.617,0h6.809v6.809h-6.809Zm-13.617,0h6.809v6.809h-6.809Zm-13.617,0h6.809v6.809h-6.809Zm-13.617,0h6.809v6.809H355.3Zm-13.617,0h6.809v6.809h-6.809Zm-13.617,0h6.809v6.809h-6.809Zm-13.617,0h6.809v6.809h-6.809Zm-13.617,0h6.809v6.809h-6.809Zm-13.617,0h6.809v6.809h-6.809Zm-13.617,0H280.4v6.809h-6.809Zm-13.617,0h6.809v6.809h-6.809Zm-13.617,0h6.809v6.809h-6.809Zm-13.617,0h6.809v6.809h-6.809Zm-13.617,0h6.809v6.809h-6.809Zm-13.617,0h6.809v6.809H205.5Zm-13.617,0H198.7v6.809h-6.809Zm-13.617,0h6.809v6.809h-6.809Zm-13.617,0h6.809v6.809h-6.809Zm-13.617,0h6.809v6.809h-6.809Zm-13.617,0h6.809v6.809h-6.809Zm-13.617,0h6.809v6.809H123.8Zm-13.617,0h6.809v6.809h-6.809Zm-13.617,0h6.809v6.809H96.564Zm-13.617,0h6.809v6.809H82.947Zm-13.617,0h6.809v6.809H69.33Zm-13.617,0h6.809v6.809H55.712Zm-13.617,0H48.9v6.809H42.095Zm-13.617,0h6.809v6.809H28.477Zm-13.617,0h6.809v6.809H14.86V95.372Zm-13.617,0H8.051v6.809H1.242ZM423.433,81.755h6.809v6.809h-6.809Zm-13.617,0h6.809v6.809h-6.809Zm-13.617,0h6.809v6.809H396.2Zm-13.617,0h6.809v6.809h-6.809Zm-13.617,0h6.809v6.809h-6.809Zm-13.617,0h6.809v6.809h-6.809Zm-13.617,0h6.809v6.809h-6.809Zm-13.617,0h6.809v6.809h-6.809Zm-13.617,0H321.3v6.809h-6.809Zm-13.617,0h6.809v6.809h-6.809Zm-13.617,0h6.809v6.809h-6.809Zm-13.617,0h6.809v6.809h-6.809Zm-13.617,0h6.809v6.809h-6.809Zm-13.617,0h6.809v6.809h-6.809Zm-13.617,0H239.6v6.809h-6.809Zm-13.617,0h6.809v6.809h-6.809Zm-13.617,0h6.809v6.809h-6.809Zm-13.617,0h6.809v6.809h-6.809Zm-13.617,0h6.809v6.809h-6.809V81.755Zm-13.617,0h6.809v6.809H164.7Zm-13.617,0h6.809v6.809h-6.809Zm-13.617,0h6.809v6.809h-6.809Zm-13.617,0h6.809v6.809h-6.809Zm-13.617,0h6.809v6.809h-6.809Zm-13.617,0h6.809v6.809H96.614ZM83,81.755h6.809v6.809H83Zm-13.617,0h6.809v6.809H69.379Zm-13.617,0H62.57v6.809H55.762Zm-13.617,0h6.809v6.809H42.144Zm-13.617,0h6.809v6.809H28.527Zm-13.617,0h6.809v6.809H14.909V81.755Zm-13.617,0H8.1v6.809H1.292ZM423.483,68.137h6.809v6.809h-6.809Zm-13.617,0h6.809v6.809h-6.809Zm-13.617,0h6.809v6.809h-6.809Zm-13.617,0h6.809v6.809h-6.809Zm-13.617,0h6.809v6.809h-6.809Zm-13.617,0H362.2v6.809H355.4Zm-13.617,0h6.809v6.809h-6.809Zm-13.617,0h6.809v6.809h-6.809Zm-13.617,0h6.809v6.809h-6.809Zm-13.617,0h6.809v6.809h-6.809Zm-13.617,0h6.809v6.809h-6.809Zm-13.617,0H280.5v6.809h-6.809Zm-13.617,0h6.809v6.809h-6.809Zm-13.617,0h6.809v6.809h-6.809Zm-13.617,0h6.809v6.809h-6.809Zm-13.617,0h6.809v6.809h-6.809Zm-13.617,0h6.809v6.809H205.6Zm-13.617,0h6.809v6.809h-6.809Zm-13.617,0h6.809v6.809h-6.809V68.137Zm-13.617,0h6.809v6.809h-6.809Zm-13.617,0h6.809v6.809h-6.809Zm-13.617,0h6.809v6.809h-6.809Zm-13.617,0h6.809v6.809H123.9Zm-13.617,0h6.809v6.809h-6.809Zm-13.617,0h6.809v6.809H96.664Zm-13.617,0h6.809v6.809H83.046Zm-13.617,0h6.809v6.809H69.429Zm-13.617,0H62.62v6.809H55.811Zm-13.617,0H49v6.809H42.194Zm-13.617,0h6.809v6.809H28.576Zm-13.617,0h6.809v6.809H14.959V68.137Zm-13.617,0H8.15v6.809H1.342ZM423.533,54.52h6.809v6.809h-6.809Zm-13.617,0h6.809v6.809h-6.809Zm-13.617,0h6.809v6.809H396.3Zm-13.617,0h6.809v6.809H382.68Zm-13.617,0h6.809v6.809h-6.809Zm-13.617,0h6.809v6.809h-6.809Zm-13.617,0h6.809v6.809h-6.809Zm-13.617,0h6.809v6.809h-6.809Zm-13.617,0H321.4v6.809h-6.809Zm-13.617,0h6.809v6.809h-6.809Zm-13.617,0h6.809v6.809h-6.809Zm-13.617,0h6.809v6.809h-6.809Zm-13.617,0h6.809v6.809h-6.809Zm-13.617,0h6.809v6.809h-6.809Zm-13.617,0H239.7v6.809h-6.809Zm-13.617,0h6.809v6.809h-6.809Zm-13.617,0h6.809v6.809h-6.809Zm-13.617,0h6.809v6.809h-6.809Zm-13.617,0h6.809v6.809h-6.809Zm-13.617,0h6.809v6.809H164.8Zm-13.617,0h6.809v6.809h-6.809Zm-13.617,0h6.809v6.809h-6.809Zm-13.617,0h6.809v6.809h-6.809Zm-13.617,0h6.809v6.809h-6.809Zm-13.617,0h6.809v6.809H96.714Zm-13.617,0H89.9v6.809H83.1Zm-13.617,0h6.809v6.809H69.479Zm-13.617,0H62.67v6.809H55.861Zm-13.617,0h6.809v6.809H42.244Zm-13.617,0h6.809v6.809H28.626Zm-13.617,0h6.809v6.809H15.009V54.52Zm-13.617,0H8.2v6.809H1.391ZM423.583,40.9h6.809v6.809h-6.809Zm-13.617,0h6.809v6.809h-6.809Zm-13.617,0h6.809v6.809h-6.809Zm-13.617,0h6.809v6.809H382.73Zm-13.617,0h6.809v6.809h-6.809Zm-13.617,0H362.3v6.809H355.5Zm-13.617,0h6.809v6.809h-6.809Zm-13.617,0h6.809v6.809H328.26Zm-13.617,0h6.809v6.809h-6.809Zm-13.617,0h6.809v6.809h-6.809Zm-13.617,0h6.809v6.809h-6.809Zm-13.617,0H280.6v6.809H273.79Zm-13.617,0h6.809v6.809h-6.809Zm-13.617,0h6.809v6.809h-6.809Zm-13.617,0h6.809v6.809h-6.809Zm-13.617,0h6.809v6.809H219.32Zm-13.617,0h6.809v6.809H205.7Zm-13.617,0h6.809v6.809h-6.809Zm-13.617,0h6.809v6.809h-6.809V40.9Zm-13.617,0h6.809v6.809h-6.809Zm-13.617,0h6.809v6.809h-6.809Zm-13.617,0h6.809v6.809h-6.809ZM124,40.9h6.809v6.809H124Zm-13.617,0h6.809v6.809h-6.809Zm-13.617,0h6.809v6.809H96.763Zm-13.617,0h6.809v6.809H83.146Zm-13.617,0h6.809v6.809H69.528Zm-13.617,0H62.72v6.809H55.911Zm-13.617,0H49.1v6.809H42.293Zm-13.617,0h6.809v6.809H28.676Zm-13.617,0h6.809v6.809H15.058V40.9Zm-13.617,0H8.25v6.809H1.441ZM423.632,27.285h6.809v6.809h-6.809Zm-13.617,0h6.809v6.809h-6.809Zm-13.617,0h6.809v6.809H396.4Zm-13.617,0h6.809v6.809H382.78Zm-13.617,0h6.809v6.809h-6.809Zm-13.617,0h6.809v6.809h-6.809Zm-13.617,0h6.809v6.809h-6.809Zm-13.617,0h6.809v6.809H328.31Zm-13.617,0H321.5v6.809h-6.809Zm-13.617,0h6.809v6.809h-6.809Zm-13.617,0h6.809v6.809h-6.809Zm-13.617,0h6.809v6.809H273.84Zm-13.617,0h6.809v6.809h-6.809Zm-13.617,0h6.809v6.809h-6.809Zm-13.617,0H239.8v6.809h-6.809Zm-13.617,0h6.809v6.809H219.37Zm-13.617,0h6.809v6.809h-6.809Zm-13.617,0h6.809v6.809h-6.809Zm-13.617,0h6.809v6.809h-6.809V27.285Zm-13.617,0h6.809v6.809H164.9Zm-13.617,0h6.809v6.809h-6.809Zm-13.617,0h6.809v6.809h-6.809Zm-13.617,0h6.809v6.809h-6.809Zm-13.617,0h6.809v6.809H110.43Zm-13.617,0h6.809v6.809H96.813Zm-13.617,0H90v6.809H83.2Zm-13.617,0h6.809v6.809H69.578Zm-13.617,0h6.809v6.809H55.96Zm-13.617,0h6.809v6.809H42.343Zm-13.617,0h6.809v6.809H28.726Zm-13.617,0h6.809v6.809H15.108V27.285Zm-13.617,0H8.3v6.809H1.491ZM423.682,13.667h6.809v6.809h-6.809V13.667Zm-13.617,0h6.809v6.809h-6.809V13.667Zm-13.617,0h6.809v6.809h-6.809V13.667Zm-13.617,0h6.809v6.809H382.83V13.667Zm-13.617,0h6.809v6.809h-6.809V13.667Zm-13.617,0H362.4v6.809h-6.809V13.667Zm-13.617,0h6.809v6.809h-6.809V13.667Zm-13.617,0h6.809v6.809H328.36V13.667Zm-13.617,0h6.809v6.809h-6.809V13.667Zm-13.617,0h6.809v6.809h-6.809V13.667Zm-13.617,0h6.809v6.809h-6.809V13.667Zm-13.617,0H280.7v6.809H273.89V13.667Zm-13.617,0h6.809v6.809h-6.809V13.667Zm-13.617,0h6.809v6.809h-6.809V13.667Zm-13.617,0h6.809v6.809h-6.809V13.667Zm-13.617,0h6.809v6.809H219.42V13.667Zm-13.617,0h6.809v6.809H205.8V13.667Zm-13.617,0h6.809v6.809h-6.809V13.667Zm-13.617,0h6.809v6.809h-6.809V13.667Zm-13.617,0h6.809v6.809H164.95V13.667Zm-13.617,0h6.809v6.809h-6.809V13.667Zm-13.617,0h6.809v6.809h-6.809V13.667Zm-13.617,0h6.809v6.809H124.1V13.667Zm-13.617,0h6.809v6.809H110.48V13.667Zm-13.617,0h6.809v6.809H96.863V13.667Zm-13.617,0h6.809v6.809H83.245V13.667Zm-13.617,0h6.809v6.809H69.628V13.667Zm-13.617,0h6.809v6.809H56.01V13.667Zm-13.617,0H49.2v6.809H42.393V13.667Zm-13.617,0h6.809v6.809H28.775V13.667Zm-13.617,0h6.809v6.809H15.158V13.667Zm-13.617,0H8.349v6.809H1.54V13.667ZM423.732.05h6.809V6.858h-6.809Zm-13.617,0h6.809V6.858h-6.809ZM396.5.05h6.809V6.858H396.5Zm-13.617,0h6.809V6.858h-6.809Zm-13.617,0h6.809V6.858h-6.809Zm-13.617,0h6.809V6.858h-6.809Zm-13.617,0h6.809V6.858h-6.809Zm-13.617,0h6.809V6.858h-6.809Zm-13.617,0H321.6V6.858h-6.809Zm-13.617,0h6.809V6.858h-6.809Zm-13.617,0h6.809V6.858h-6.809Zm-13.617,0h6.809V6.858h-6.809Zm-13.617,0h6.809V6.858h-6.809ZM246.7.05h6.809V6.858H246.7Zm-13.617,0H239.9V6.858h-6.809ZM219.47.05h6.809V6.858H219.47Zm-13.617,0h6.809V6.858h-6.809Zm-13.617,0h6.809V6.858h-6.809Zm-13.617,0h6.809V6.858h-6.809ZM165,.05h6.809V6.858H165Zm-13.617,0h6.809V6.858h-6.809Zm-13.617,0h6.809V6.858h-6.809Zm-13.617,0h6.809V6.858h-6.809ZM110.53.05h6.809V6.858H110.53ZM96.912.05h6.809V6.858H96.912ZM83.295.05H90.1V6.858H83.295ZM69.677.05h6.809V6.858H69.677ZM56.06.05h6.809V6.858H56.06ZM42.442.05h6.809V6.858H42.442ZM28.825.05h6.809V6.858H28.825ZM15.207.05h6.809V6.858H15.207V.05Z"/>
  </g>
</svg>
