<svg xmlns="http://www.w3.org/2000/svg" xmlns:xlink="http://www.w3.org/1999/xlink" width="43" height="39" viewBox="0 0 43 39"><defs><path id="xya7a" d="M1116.9 1304.44a4.3 4.3 0 0 1 2.83-4.9l14.49-3.88a4.3 4.3 0 0 1 4.9 2.82l6.98 26.08a4.3 4.3 0 0 1-2.83 4.9l-14.49 3.88a4.3 4.3 0 0 1-4.9-2.82z"/><path id="xya7c" d="M1132.23 1328.8l6.76-1.81"/><path id="xya7d" d="M1113.72 1309.95l4.65 17.38"/><path id="xya7e" d="M1111.15 1315.81l2.33 8.7"/><path id="xya7f" d="M1144.63 1301.67l4.65 17.38"/><path id="xya7g" d="M1149.78 1305.46l2.33 8.7"/><clipPath id="xya7b"><use fill="#fff" xlink:href="#xya7a"/></clipPath></defs><g><g transform="translate(-1110 -1295)"><g/><g><g><use fill="#fff" fill-opacity="0" stroke="#ffdc00" stroke-linecap="round" stroke-linejoin="round" stroke-miterlimit="50" stroke-width="4" clip-path="url(&quot;#xya7b&quot;)" xlink:href="#xya7a"/></g><g><use fill="#fff" fill-opacity="0" stroke="#ffdc00" stroke-linecap="round" stroke-miterlimit="50" stroke-width="2" xlink:href="#xya7c"/></g><g><use fill="#fff" fill-opacity="0" stroke="#ffdc00" stroke-linecap="round" stroke-miterlimit="50" stroke-width="2" xlink:href="#xya7d"/></g><g><use fill="#fff" fill-opacity="0" stroke="#ffdc00" stroke-linecap="round" stroke-miterlimit="50" stroke-width="2" xlink:href="#xya7e"/></g><g><use fill="#fff" fill-opacity="0" stroke="#ffdc00" stroke-linecap="round" stroke-miterlimit="50" stroke-width="2" xlink:href="#xya7f"/></g><g><use fill="#fff" fill-opacity="0" stroke="#ffdc00" stroke-linecap="round" stroke-miterlimit="50" stroke-width="2" xlink:href="#xya7g"/></g></g></g></g></svg>