<svg xmlns="http://www.w3.org/2000/svg" viewBox="0 0 237 67.746">
  <defs>
    <style>
      .cls-1 {
        fill: #ffdc00;
        fill-rule: evenodd;
      }
    </style>
  </defs>
  <g id="_logos_subbrends" data-name="!logos subbrends" transform="translate(0 -0.01)">
    <path id="Path_11" data-name="Path 11" class="cls-1" d="M3.45,35.357,12.812.417,11.291.01,1.929,34.95l1.521.407ZM1.521,54.721l11.2-41.806L11.2,12.508,0,54.314Zm3.041.814L18.894,2.046l-1.521-.407L3.041,55.128ZM7.6,56.35l8.483-31.657-1.521-.407L6.082,55.943Zm3.041.814L24.976,3.675l-1.521-.407L9.123,56.757l1.521.407Zm3.041.814,6.386-23.835-1.521-.407L12.164,57.572l1.521.407Zm3.041.814L31.059,5.3,29.538,4.9,15.206,58.386l1.521.407Zm3.041.814,3.894-14.532-1.521-.407L18.247,59.2Zm3.041.815L37.141,6.934,35.62,6.526,21.288,60.016l1.521.408ZM33.016,34.494,40.182,7.749l-1.521-.408L31.5,34.086l1.521.407ZM28.891,62.053,43.223,8.563,41.7,8.156,27.37,61.646ZM41.264,28.039l5-18.661-1.521-.407-5,18.661ZM34.973,63.683l14.332-53.49-1.521-.407L33.453,63.275ZM49.33,22.269l3.017-11.261L50.826,10.6,47.809,21.861l1.521.407ZM41.055,65.312,55.388,11.823l-1.521-.407L39.535,64.905Zm3.041.814,5.14-19.184-1.521-.408-5.14,19.184,1.521.407Zm3.041.815L61.47,13.452l-1.521-.407L45.617,66.535Zm3.041.814L53,57.241l-1.521-.408L48.658,67.349Z"/>
    <path id="Path_12" data-name="Path 12" d="M1024.308,274.819a8.207,8.207,0,0,1-3.606,6.908q-3.606,2.665-9.787,2.662a27.508,27.508,0,0,1-6.234-.627,32.132,32.132,0,0,1-4.98-1.592v-6.9h.813a17.347,17.347,0,0,0,5.144,2.82,16.815,16.815,0,0,0,5.474.983,17.535,17.535,0,0,0,1.783-.118,7.05,7.05,0,0,0,1.8-.383,4.787,4.787,0,0,0,1.4-.872,2.065,2.065,0,0,0,.548-1.552,2.1,2.1,0,0,0-.8-1.638,5.614,5.614,0,0,0-2.351-1.05q-1.625-.387-3.434-.726a26.931,26.931,0,0,1-3.395-.859,10.63,10.63,0,0,1-5.224-3.2,7.85,7.85,0,0,1-1.6-5.019,7.726,7.726,0,0,1,3.606-6.565,15.714,15.714,0,0,1,9.272-2.542,29.069,29.069,0,0,1,5.613.548,26.264,26.264,0,0,1,4.808,1.387v6.623h-.793a15.26,15.26,0,0,0-4.26-2.318,14.787,14.787,0,0,0-5.151-.93,13.173,13.173,0,0,0-1.842.125,7.321,7.321,0,0,0-1.77.469,3.48,3.48,0,0,0-1.294.878,1.909,1.909,0,0,0-.542,1.341,2.014,2.014,0,0,0,.871,1.751,9.868,9.868,0,0,0,3.283,1.109c1.056.218,2.074.437,3.051.641a31.275,31.275,0,0,1,3.137.851,10.488,10.488,0,0,1,4.881,2.946,7.255,7.255,0,0,1,1.579,4.848Zm21.627-19.753-10.5,28.807h-8.321l-10.5-28.807h7.805l6.961,20.228,6.961-20.228h7.6Zm21.118,28.807h-7.688l-2-5.825h-10.587l-2.008,5.825h-7.516l10.626-28.807h8.546Zm-11.472-11.095-3.513-10.243-3.513,10.243h7.027Zm22.116-8.915a3.642,3.642,0,0,0-.437-1.836,2.938,2.938,0,0,0-1.512-1.208,5.49,5.49,0,0,0-1.73-.376c-.661-.046-1.433-.066-2.312-.066h-2.648v7.688h2.252a21.341,21.341,0,0,0,2.933-.171,4.236,4.236,0,0,0,1.987-.786,3.832,3.832,0,0,0,1.117-1.314,4.5,4.5,0,0,0,.35-1.929Zm11.65,20.01h-9.087l-7.839-10.579h-3.362v10.579h-7.449V255.066h12.449a28.736,28.736,0,0,1,4.385.29,9.471,9.471,0,0,1,3.441,1.255,7.516,7.516,0,0,1,2.583,2.5,7.152,7.152,0,0,1,.957,3.856,8.562,8.562,0,0,1-1.473,5.2,11.159,11.159,0,0,1-4.22,3.348l9.616,12.356Zm20.861-14.377a14.2,14.2,0,0,1-1.836,7.212,13.441,13.441,0,0,1-4.642,4.881,14.279,14.279,0,0,1-4.63,1.783,30.627,30.627,0,0,1-5.956.5h-10.157V255.066h10.448a27.517,27.517,0,0,1,6.076.588,14,14,0,0,1,4.293,1.678,13.063,13.063,0,0,1,4.7,4.9,14.744,14.744,0,0,1,1.711,7.264Zm-7.727-.066a10.581,10.581,0,0,0-1.03-4.855,7.173,7.173,0,0,0-3.263-3.157,8.376,8.376,0,0,0-2.318-.759,22.466,22.466,0,0,0-3.566-.2h-1.869v17.989h1.869a21.7,21.7,0,0,0,3.864-.244,8.25,8.25,0,0,0,2.411-.878,7.107,7.107,0,0,0,2.959-3.1,10.925,10.925,0,0,0,.945-4.8Zm30.364,14.443h-7.688l-2-5.825H1112.57l-2.008,5.825h-7.516l10.626-28.807h8.546l10.626,28.807Zm-11.472-11.095-3.513-10.243-3.513,10.243h7.027Zm31.388-17.712-10.62,17.666v11.141h-7.449v-10.8l-10.777-18.009h8.453l6.2,11.121,6.01-11.121h8.182Z" transform="translate(-915.762 -233.168)"/>
  </g>
</svg>
